<?xml version="1.0" encoding="iso-8859-1"?>
<!-- Generator: Adobe Illustrator 16.0.0, SVG Export Plug-In . SVG Version: 6.00 Build 0)  -->
<!DOCTYPE svg PUBLIC "-//W3C//DTD SVG 1.1//EN" "http://www.w3.org/Graphics/SVG/1.1/DTD/svg11.dtd">
<svg version="1.1" id="Capa_1" xmlns="http://www.w3.org/2000/svg" xmlns:xlink="http://www.w3.org/1999/xlink" x="0px" y="0px"
	 width="111.353px" height="111.353px" viewBox="0 0 111.353 111.353"
	 xml:space="preserve">
<g>
	<g>
		<path style="fill:white" d="M97,85.508c-2.75,0-4.988,2.239-4.988,4.989v4.007c-0.04,0-0.118,0-0.157,0l0,0l-44.231-0.078
			c0.118-0.236,0.196-0.433,0.314-0.668c0.354-0.903-0.079-1.965-0.982-2.318c-0.903-0.353-1.964,0.079-2.318,0.982
			c-0.275,0.668-0.589,1.336-0.982,2.004h-18.58l14.377-17.167c0.707,0.511,1.571,1.257,2.475,2.2
			c0.354,0.393,0.825,0.55,1.296,0.55c0.432,0,0.864-0.157,1.218-0.472c0.707-0.667,0.747-1.808,0.079-2.515
			c-0.982-1.061-1.964-1.886-2.789-2.514l49.731-56.645l2.004,2.003c0.98,0.981,2.239,1.454,3.496,1.454s2.553-0.472,3.496-1.454
			c1.925-1.926,1.925-5.106,0-7.031L89.066,1.444c-1.925-1.925-5.106-1.925-7.031,0c-1.926,1.926-1.926,5.106,0,7.031l2.356,2.317
			L10.541,96.074c-1.257,1.491-1.532,3.573-0.707,5.343c0.825,1.728,2.593,2.944,4.518,2.944l0,0l77.503-0.116
			c0.039,0,0.078,0,0.157,0v2.121c0,2.75,2.238,4.987,4.988,4.987s4.989-2.237,4.989-4.987V90.457
			C101.95,87.748,99.75,85.508,97,85.508z"/>
		<path style="fill:white" d="M45.501,80.874c-0.903,0.393-1.296,1.609-0.903,2.514c0.628,1.414,0.864,2.985,0.864,4.95
			c0.118,0.942,1.021,1.688,2.003,1.571c0.903-0.118,1.532-0.864,1.493-1.729h0.039c0-2.004-0.235-4.597-1.1-6.521
			C47.465,80.795,46.405,80.481,45.501,80.874z"/>
		<g>
			<path style="fill:white" d="M65.26,80.52h-6.874c-0.981,0-1.768-0.707-1.768-1.688c0-0.746,0.313-1.375,0.863-2.003l7.269-8.406
				c0.707-0.825,1.218-1.257,2.277-1.257c0.981,0,1.769,0.746,1.769,1.728v8.644h0.864c0.823,0,1.491,0.668,1.491,1.491
				c0,0.825-0.668,1.493-1.491,1.493h-0.904v2.003c0,0.982-0.785,1.729-1.769,1.729c-0.98,0-1.729-0.746-1.729-1.729L65.26,80.52
				L65.26,80.52z M65.26,77.536V72.31l-4.438,5.226H65.26z"/>
			<path style="fill:white" d="M74.375,82.798c-0.434-0.314-0.747-0.786-0.747-1.414c0-0.943,0.786-1.768,1.729-1.768c0.434,0,0.707,0.116,1.021,0.354
				c1.021,0.746,2.004,1.062,3.182,1.062c1.532,0,2.711-0.825,2.711-2.317v-0.04c0-1.414-1.218-2.278-2.945-2.278
				c-1.414,0-2.043,0.434-2.515,0.434c-0.511,0-0.942-0.196-1.649-0.746c-0.512-0.354-0.707-0.864-0.668-1.493l0.354-5.656
				c0.04-0.863,0.747-1.57,1.611-1.57h7.267c0.864,0,1.61,0.745,1.61,1.609s-0.746,1.61-1.61,1.61H77.99l-0.196,2.946
				c0.668-0.157,1.257-0.275,2.2-0.275c3.3,0,5.853,1.571,5.853,5.343v0.039c0,3.535-2.553,5.774-6.206,5.774
				C77.28,84.371,75.709,83.782,74.375,82.798z"/>
			<path style="fill:white" d="M88.202,70.974v-0.039c0-2.043,1.609-3.652,3.691-3.652s3.653,1.609,3.653,3.613v0.039c0,2.043-1.61,3.653-3.692,3.653
				C89.772,74.627,88.202,73.017,88.202,70.974z M88.318,76.709c0-0.433,0.354-0.785,0.786-0.785h5.578
				c0.433,0,0.785,0.354,0.785,0.785c0,0.433-0.354,0.786-0.785,0.786h-5.578C88.672,77.496,88.318,77.142,88.318,76.709z
				 M93.623,70.974v-0.039c0-1.021-0.707-1.925-1.729-1.925c-1.061,0-1.688,0.864-1.688,1.925v0.039
				c0,1.021,0.707,1.925,1.729,1.925C92.956,72.899,93.623,72.036,93.623,70.974z"/>
		</g>
	</g>
</g>
<g>
</g>
<g>
</g>
<g>
</g>
<g>
</g>
<g>
</g>
<g>
</g>
<g>
</g>
<g>
</g>
<g>
</g>
<g>
</g>
<g>
</g>
<g>
</g>
<g>
</g>
<g>
</g>
<g>
</g>
</svg>
