<?xml version="1.0" encoding="iso-8859-1"?>
<!-- Generator: Adobe Illustrator 16.0.0, SVG Export Plug-In . SVG Version: 6.00 Build 0)  -->
<!DOCTYPE svg PUBLIC "-//W3C//DTD SVG 1.1//EN" "http://www.w3.org/Graphics/SVG/1.1/DTD/svg11.dtd">
<svg version="1.1" id="Capa_1" xmlns="http://www.w3.org/2000/svg" xmlns:xlink="http://www.w3.org/1999/xlink" x="0px" y="0px"
	 width="329.209px" height="329.209px" viewBox="0 0 329.209 329.209" style="enable-background:new 0 0 329.209 329.209;"
	 xml:space="preserve">
<g>
	<g style="fill:white">
		<path d="M64.99,131.391c1.247,1.103,2.971,1.501,4.627,1.165c1.638-0.325,3.063-1.459,3.806-2.966
			c0.278-0.565,3.315-5.874,13.438-4.945c13.008,1.182,21.486,7.042,21.57,7.095c0.937,0.661,2.024,0.99,3.107,0.99
			c1.308,0,2.607-0.478,3.636-1.413l32.252-29.564c1.767-1.625,2.247-4.221,1.176-6.371l-13.521-27.034
			c14.063-23.806,42.312-25.709,50.853-25.709c1.122,0,1.784,0.037,2.246,0.053l6.719-0.053c2.21-0.016,4.184-1.388,4.976-3.452
			c0.8-2.065,0.242-4.396-1.39-5.892c-14.122-12.926-31.69-19.481-52.237-19.481c-40.966,0-83.381,27.113-91.982,45.397
			C44.089,80.837,31.268,93.855,31.134,93.989c-1.042,1.049-1.612,2.488-1.565,3.968c0.051,1.483,0.707,2.88,1.825,3.864
			L64.99,131.391z"/>
		<path d="M38.17,166.357c0.979,0.829,2.215,1.28,3.483,1.28c0.158,0,0.317-0.005,0.473-0.021c1.44-0.125,2.764-0.823,3.677-1.938
			l18.814-22.845c1.845-2.236,1.585-5.525-0.586-7.443l-34.94-30.909c-1.065-0.948-2.446-1.399-3.892-1.339
			c-1.431,0.092-2.756,0.74-3.699,1.811L1.343,127.801c-0.956,1.075-1.436,2.499-1.329,3.935c0.103,1.441,0.78,2.773,1.877,3.708
			L38.17,166.357z"/>
		<path d="M327.973,264.453c-0.285-0.662-0.693-1.249-1.213-1.753l-91.865-88.127l-37.406-36.505l77.066-71.24l3.852,3.854
			c1.01,1.01,2.379,1.575,3.802,1.575c0.072,0,0.152,0,0.226-0.005c1.501-0.063,2.908-0.753,3.88-1.903l28.42-33.643
			c0.934-1.108,1.385-2.544,1.244-3.979c-0.137-1.446-0.852-2.769-1.974-3.678l-10.525-8.488c-1.963-1.575-4.762-1.591-6.735-0.016
			l-33.35,26.677c-1.192,0.959-1.922,2.378-2.005,3.904c-0.089,1.527,0.482,3.021,1.564,4.102l3.995,3.994l-77.167,71.332
			l-28.46-27.775c-2-1.952-5.184-2.039-7.283-0.205l-36.956,32.253c-1.103,0.96-1.765,2.328-1.84,3.777
			c-0.074,1.459,0.445,2.881,1.445,3.947l27.883,29.8l-3.525,3.261l-13.58-13.744c-1.971-2.005-5.187-2.128-7.32-0.299L2.703,262.5
			c-0.617,0.541-1.113,1.208-1.433,1.953c-3.926,9.098,1.703,23.469,14.003,35.765c9.352,9.359,20.553,15.177,29.231,15.177
			c2.981,0,5.633-0.662,7.879-1.96c0.405-0.229,0.78-0.52,1.108-0.85l108.375-108.289c2.089-2.096,2.1-5.481,0.021-7.581
			l-13.294-13.449l3.312-3.061l123.715,132.26c0.363,0.377,0.782,0.713,1.233,0.977c2.247,1.301,4.898,1.953,7.88,1.953
			c8.673,0,19.874-5.817,29.233-15.172C326.267,287.922,331.899,273.551,327.973,264.453z M18.812,273.834
			c-0.753,0-1.499-0.32-2.031-0.93c-0.974-1.123-0.851-2.813,0.275-3.789l98.642-85.451c1.117-0.97,2.818-0.85,3.79,0.274
			c0.974,1.122,0.851,2.817-0.273,3.789l-98.644,85.449C20.06,273.618,19.438,273.834,18.812,273.834z M32.924,287.945
			c-0.698,0-1.397-0.273-1.924-0.815c-1.031-1.06-1.011-2.766,0.055-3.8l93.064-90.604c1.058-1.031,2.755-1.01,3.798,0.052
			c1.034,1.06,1.01,2.771-0.052,3.8L34.8,287.182C34.278,287.693,33.601,287.945,32.924,287.945z M140.991,205.277l-92.054,92.625
			c-0.527,0.535-1.215,0.792-1.903,0.792c-0.688,0-1.37-0.263-1.898-0.782c-1.047-1.044-1.053-2.75-0.01-3.8l92.054-92.626
			c1.05-1.055,2.753-1.055,3.801-0.011C142.027,202.52,142.04,204.221,140.991,205.277z"/>
	</g>
</g>
<g>
</g>
<g>
</g>
<g>
</g>
<g>
</g>
<g>
</g>
<g>
</g>
<g>
</g>
<g>
</g>
<g>
</g>
<g>
</g>
<g>
</g>
<g>
</g>
<g>
</g>
<g>
</g>
<g>
</g>
</svg>
