<?xml version="1.0" encoding="iso-8859-1"?>
<!-- Generator: Adobe Illustrator 19.0.0, SVG Export Plug-In . SVG Version: 6.00 Build 0)  -->
<svg version="1.1" id="Capa_1" xmlns="http://www.w3.org/2000/svg" xmlns:xlink="http://www.w3.org/1999/xlink" x="0px" y="0px"
	 viewBox="0 0 381.39 381.39" xml:space="preserve">
<g>
	<g>
		<g>
			<path style="fill:white;" d="M380.15,9.821c-1.621-3.877-4.704-6.992-8.581-8.581L365.499,0H206.586
				c-8.74,0-15.891,7.119-15.891,15.891s7.151,15.891,15.891,15.891h120.551L31.782,327.137V206.586
				c0-8.772-7.119-15.891-15.891-15.891S0,197.814,0,206.586v158.976l1.208,6.007l3.305,4.958l0.127,0.191l0.127,0.127l5.022,3.305
				l6.102,1.24h158.912c8.772,0,15.891-7.151,15.891-15.891s-7.119-15.891-15.891-15.891H54.253L349.607,54.253v120.551
				c0,8.772,7.151,15.891,15.891,15.891s15.891-7.119,15.891-15.891V15.891L380.15,9.821z"/>
		</g>
	</g>
</g>
<g>
</g>
<g>
</g>
<g>
</g>
<g>
</g>
<g>
</g>
<g>
</g>
<g>
</g>
<g>
</g>
<g>
</g>
<g>
</g>
<g>
</g>
<g>
</g>
<g>
</g>
<g>
</g>
<g>
</g>
</svg>
